<?xml version="1.0" encoding="UTF-8" standalone="no"?><svg xmlns="http://www.w3.org/2000/svg" xmlns:xlink="http://www.w3.org/1999/xlink" contentStyleType="text/css" height="161px" preserveAspectRatio="none" style="width:303px;height:161px;background:#FFFFFF;" version="1.1" viewBox="0 0 303 161" width="303px" zoomAndPan="magnify"><defs/><g><!--MD5=[4f1eb22847a7fd8398460dc1e611e6ea]
class CardCreator--><g id="elem_CardCreator"><rect codeLine="6" fill="#F1F1F1" height="64.2969" id="CardCreator" rx="2.5" ry="2.5" style="stroke:#181818;stroke-width:0.5;" width="121" x="16.5" y="90"/><ellipse cx="34.2" cy="106" fill="#A9DCDF" rx="11" ry="11" style="stroke:#181818;stroke-width:1.0;"/><path d="M34.3094,101.3438 L33.1531,106.4219 L35.4813,106.4219 L34.3094,101.3438 Z M32.825,99.1094 L35.8094,99.1094 L39.1688,111.5 L36.7156,111.5 L35.95,108.4375 L32.6688,108.4375 L31.9188,111.5 L29.4813,111.5 L32.825,99.1094 Z " fill="#000000"/><text fill="#000000" font-family="sans-serif" font-size="14" font-style="italic" lengthAdjust="spacing" textLength="83" x="48.8" y="110.8467">CardCreator</text><line style="stroke:#181818;stroke-width:0.5;" x1="17.5" x2="136.5" y1="122" y2="122"/><line style="stroke:#181818;stroke-width:0.5;" x1="17.5" x2="136.5" y1="130" y2="130"/><text fill="#000000" font-family="sans-serif" font-size="14" lengthAdjust="spacing" textLength="109" x="22.5" y="146.9951">#toCard(): Card</text></g><!--MD5=[33a948a76e8c76546b4a0a4c80d09de1]
class MonsterCreator--><g id="elem_MonsterCreator"><rect fill="#F1F1F1" height="48" id="MonsterCreator" rx="2.5" ry="2.5" style="stroke:#181818;stroke-width:0.5;" width="140" x="7" y="7"/><ellipse cx="22" cy="23" fill="#ADD1B2" rx="11" ry="11" style="stroke:#181818;stroke-width:1.0;"/><path d="M24.9688,28.6406 Q24.3906,28.9375 23.75,29.0781 Q23.1094,29.2344 22.4063,29.2344 Q19.9063,29.2344 18.5781,27.5938 Q17.2656,25.9375 17.2656,22.8125 Q17.2656,19.6875 18.5781,18.0313 Q19.9063,16.375 22.4063,16.375 Q23.1094,16.375 23.75,16.5313 Q24.4063,16.6875 24.9688,16.9844 L24.9688,19.7031 Q24.3438,19.125 23.75,18.8594 Q23.1563,18.5781 22.5313,18.5781 Q21.1875,18.5781 20.5,19.6563 Q19.8125,20.7188 19.8125,22.8125 Q19.8125,24.9063 20.5,25.9844 Q21.1875,27.0469 22.5313,27.0469 Q23.1563,27.0469 23.75,26.7813 Q24.3438,26.5 24.9688,25.9219 L24.9688,28.6406 Z " fill="#000000"/><text fill="#000000" font-family="sans-serif" font-size="14" lengthAdjust="spacing" textLength="108" x="36" y="27.8467">MonsterCreator</text><line style="stroke:#181818;stroke-width:0.5;" x1="8" x2="146" y1="39" y2="39"/><line style="stroke:#181818;stroke-width:0.5;" x1="8" x2="146" y1="47" y2="47"/></g><!--MD5=[5e305716458bbdabbd2d7f572ed2bae2]
class Card--><g id="elem_Card"><rect codeLine="12" fill="#F1F1F1" height="48" id="Card" rx="2.5" ry="2.5" style="stroke:#181818;stroke-width:0.5;" width="64" x="219.5" y="90"/><ellipse cx="234.5" cy="106" fill="#B4A7E5" rx="11" ry="11" style="stroke:#181818;stroke-width:1.0;"/><path d="M230.4219,101.7656 L230.4219,99.6094 L237.8125,99.6094 L237.8125,101.7656 L235.3438,101.7656 L235.3438,109.8438 L237.8125,109.8438 L237.8125,112 L230.4219,112 L230.4219,109.8438 L232.8906,109.8438 L232.8906,101.7656 L230.4219,101.7656 Z " fill="#000000"/><text fill="#000000" font-family="sans-serif" font-size="14" font-style="italic" lengthAdjust="spacing" textLength="32" x="248.5" y="110.8467">Card</text><line style="stroke:#181818;stroke-width:0.5;" x1="220.5" x2="282.5" y1="122" y2="122"/><line style="stroke:#181818;stroke-width:0.5;" x1="220.5" x2="282.5" y1="130" y2="130"/></g><!--MD5=[d2c4278637bdc93ab6ebd71329cfa63c]
class Monster--><g id="elem_Monster"><rect fill="#F1F1F1" height="48" id="Monster" rx="2.5" ry="2.5" style="stroke:#181818;stroke-width:0.5;" width="89" x="207" y="7"/><ellipse cx="222" cy="23" fill="#ADD1B2" rx="11" ry="11" style="stroke:#181818;stroke-width:1.0;"/><path d="M224.9688,28.6406 Q224.3906,28.9375 223.75,29.0781 Q223.1094,29.2344 222.4063,29.2344 Q219.9063,29.2344 218.5781,27.5938 Q217.2656,25.9375 217.2656,22.8125 Q217.2656,19.6875 218.5781,18.0313 Q219.9063,16.375 222.4063,16.375 Q223.1094,16.375 223.75,16.5313 Q224.4063,16.6875 224.9688,16.9844 L224.9688,19.7031 Q224.3438,19.125 223.75,18.8594 Q223.1563,18.5781 222.5313,18.5781 Q221.1875,18.5781 220.5,19.6563 Q219.8125,20.7188 219.8125,22.8125 Q219.8125,24.9063 220.5,25.9844 Q221.1875,27.0469 222.5313,27.0469 Q223.1563,27.0469 223.75,26.7813 Q224.3438,26.5 224.9688,25.9219 L224.9688,28.6406 Z " fill="#000000"/><text fill="#000000" font-family="sans-serif" font-size="14" lengthAdjust="spacing" textLength="57" x="236" y="27.8467">Monster</text><line style="stroke:#181818;stroke-width:0.5;" x1="208" x2="295" y1="39" y2="39"/><line style="stroke:#181818;stroke-width:0.5;" x1="208" x2="295" y1="47" y2="47"/></g><!--MD5=[2e4ae0a6f46c61f90c7567848af71bfa]
link MonsterCreator to CardCreator--><g id="link_MonsterCreator_CardCreator"><path codeLine="10" d="M77,55.29 C77,60.03 77,64.77 77,69.52 " fill="none" id="MonsterCreator-to-CardCreator" style="stroke:#181818;stroke-width:1.0;"/><polygon fill="none" points="84,69.65,77,89.65,70,69.65,84,69.65" style="stroke:#181818;stroke-width:1.0;"/></g><!--MD5=[5c04a6a996871f5fd5beae5c0a8dd825]
link Monster to Card--><g id="link_Monster_Card"><path codeLine="14" d="M251.5,55.3 C251.5,60.04 251.5,64.79 251.5,69.54 " fill="none" id="Monster-to-Card" style="stroke:#181818;stroke-width:1.0;"/><polygon fill="none" points="258.5,69.68,251.5,89.68,244.5,69.68,258.5,69.68" style="stroke:#181818;stroke-width:1.0;"/></g><!--MD5=[8e0e1e23e3661e562fd32a08e40efa55]
link MonsterCreator to Monster--><g id="link_MonsterCreator_Monster"><path codeLine="16" d="M147.17,31 C165.43,31 184.76,31 201.7,31 " fill="none" id="MonsterCreator-to-Monster" style="stroke:#181818;stroke-width:1.0;stroke-dasharray:7.0,7.0;"/><polygon fill="#181818" points="206.87,31,197.87,27,201.87,31,197.87,35,206.87,31" style="stroke:#181818;stroke-width:1.0;"/><text fill="#000000" font-family="sans-serif" font-size="13" lengthAdjust="spacing" textLength="48" x="151.0019" y="44.1415">creates</text></g><!--MD5=[15cd82cadeb5637dc1e2c312f1c03fe5]
@startuml
left to right direction

skinparam classAttributeIconSize 0


abstract class CardCreator {
  #toCard(): Card
}

MonsterCreator -|> CardCreator

interface Card {}

Monster -|> Card

MonsterCreator "creates"..> Monster
@enduml

PlantUML version 1.2022.7(Mon Aug 22 17:01:30 UTC 2022)
(GPL source distribution)
Java Runtime: OpenJDK Runtime Environment
JVM: OpenJDK 64-Bit Server VM
Default Encoding: UTF-8
Language: en
Country: null
--></g></svg>